<svg width="30" height="30" viewBox="0 0 30 30" fill="none" xmlns="http://www.w3.org/2000/svg">
<path d="M14.2857 6.42871H7.85714C7.09938 6.42871 6.37266 6.72973 5.83684 7.26555C5.30102 7.80137 5 8.52809 5 9.28585V22.143C5 22.9008 5.30102 23.6275 5.83684 24.1633C6.37266 24.6991 7.09938 25.0001 7.85714 25.0001H22.1429C22.9006 25.0001 23.6273 24.6991 24.1632 24.1633C24.699 23.6275 25 22.9008 25 22.143V15.7144" stroke="#4B70F5" stroke-width="1.42857" stroke-linecap="round" stroke-linejoin="round"/>
<path d="M22.1428 7.85723L23.5042 9.2858M24.9999 4.95295C25.3815 5.34639 25.5928 5.87418 25.5883 6.42221C25.5837 6.97024 25.3637 7.49446 24.9757 7.88152L14.9999 17.8572L10.7142 19.2858L12.1428 15.0001L22.1242 4.93437C22.4753 4.58106 22.9448 4.37034 23.4421 4.3429C23.9394 4.31547 24.4293 4.47325 24.8171 4.7858L24.9999 4.95295Z" stroke="#4B70F5" stroke-width="1.42857" stroke-linecap="round" stroke-linejoin="round"/>
</svg>
